<svg width="60" height="60" viewBox="0 0 60 60" fill="none" xmlns="http://www.w3.org/2000/svg">
<path d="M57.4999 31.1112C57.5095 34.7774 56.6529 38.3942 54.9999 41.6667C53.04 45.5882 50.027 48.8866 46.2984 51.1925C42.5698 53.4983 38.2728 54.7205 33.8888 54.7222C30.2226 54.7318 26.6058 53.8752 23.3333 52.2222L7.5 57.5L12.7778 41.6667C11.1248 38.3942 10.2682 34.7774 10.2778 31.1112C10.2795 26.7272 11.5017 22.4302 13.8075 18.7016C16.1134 14.973 19.4118 11.96 23.3333 10.0001C26.6058 8.34711 30.2226 7.49052 33.8888 7.50008H35.2777C41.0676 7.8195 46.5362 10.2633 50.6364 14.3636C54.7367 18.4638 57.1805 23.9324 57.4999 29.7223V31.1112Z" stroke="#2D3047" stroke-width="2" stroke-linecap="round" stroke-linejoin="round"/>
</svg>
