<svg width="60" height="60" viewBox="0 0 60 60" fill="none" xmlns="http://www.w3.org/2000/svg">
<path d="M36.2496 12.0748C38.5876 12.531 40.7363 13.6744 42.4207 15.3588C44.1051 17.0432 45.2486 19.1919 45.7047 21.53L36.2496 12.0748ZM36.2496 2.5C41.1071 3.03963 45.6367 5.21488 49.0948 8.6686C52.5529 12.1223 54.7338 16.6492 55.2795 21.506L36.2496 2.5ZM52.8858 40.6078V47.7889C52.8885 48.4556 52.752 49.1154 52.4849 49.7263C52.2178 50.3371 51.8261 50.8854 51.3349 51.3361C50.8437 51.7867 50.2637 52.1299 49.6322 52.3434C49.0007 52.557 48.3315 52.6363 47.6676 52.5763C40.3017 51.776 33.2263 49.259 27.0099 45.2277C21.2263 41.5525 16.3228 36.649 12.6476 30.8654C8.60223 24.6207 6.08469 17.5109 5.29897 10.112C5.23915 9.45005 5.31782 8.7829 5.52996 8.15303C5.74211 7.52316 6.08308 6.94437 6.53117 6.4535C6.97926 5.96262 7.52465 5.57043 8.13262 5.30189C8.74058 5.03334 9.39781 4.89433 10.0624 4.89371H17.2436C18.4052 4.88227 19.5314 5.29364 20.4123 6.05114C21.2931 6.80864 21.8684 7.86058 22.031 9.01088C22.3341 11.309 22.8962 13.5654 23.7066 15.7372C24.0286 16.594 24.0983 17.5251 23.9074 18.4203C23.7165 19.3154 23.273 20.1371 22.6294 20.7879L19.5894 23.8279C22.997 29.8207 27.9589 34.7826 33.9516 38.1902L36.9916 35.1501C37.6425 34.5066 38.4641 34.063 39.3593 33.8721C40.2545 33.6812 41.1856 33.7509 42.0423 34.073C44.2141 34.8834 46.4705 35.4455 48.7687 35.7486C49.9314 35.9126 50.9934 36.4983 51.7525 37.3942C52.5116 38.2902 52.915 39.4339 52.8858 40.6078Z" stroke="#FFDBB5" stroke-width="2" stroke-linecap="round" stroke-linejoin="round"/>
</svg>
